<?xml version="1.0" encoding="utf-8"?>
<!-- Generator: Adobe Illustrator 21.1.0, SVG Export Plug-In . SVG Version: 6.00 Build 0)  -->
<svg version="1.1" id="Layer_1" xmlns="http://www.w3.org/2000/svg" xmlns:xlink="http://www.w3.org/1999/xlink" x="0px" y="0px"
	 viewBox="0 0 357.8 100" style="enable-background:new 0 0 357.8 100;" xml:space="preserve">
<style type="text/css">
	.st0{fill:#FDD641;}
	.st1{fill:#EF3950;}
	.st2{fill:#32C2ED;}
	.st3{fill:#64C084;}
	.st4{fill:#4E504F;}
	.st5{font-family:'ProximaNova-Bold';}
	.st6{font-size:2.53px;}
</style>
<g>
	<title>logosizes</title>
	<path class="st0" fill="FDD641" d="M95.8,47.3L95.8,47.3l-24.2-0.1c-1.9,0-3.5-1.6-3.5-3.5V26.2c0-1.9,1.6-3.5,3.5-3.5s3.5,1.6,3.5,3.5v14
		l16.7,0.1c-1.7-7.9-5.6-15.2-11.2-21c-5.8-5.8-13.2-9.9-21.2-11.7v31.3c0,1.9-1.6,3.5-3.5,3.5s-3.5-1.6-3.5-3.5l0,0V3.5
		c0-1.9,1.6-3.5,3.5-3.5c0.1,0,0.2,0,0.3,0c22.8,2.8,40.6,20.8,43.1,43.6c0.1,1.9-1.4,3.6-3.3,3.7C95.9,47.3,95.8,47.3,95.8,47.3
		L95.8,47.3z"/>
	<path class="st1" d="M55.9,99.5c-1.9,0-3.5-1.6-3.5-3.5l0,0V60.6c0-1.9,1.6-3.5,3.5-3.5s3.5,1.6,3.5,3.5v31.3
		c8-1.8,15.4-5.9,21.1-11.8c5.6-5.8,9.5-13.1,11.2-21L75,59.2v14c0,1.9-1.6,3.5-3.5,3.5S68,75.2,68,73.2V55.8c0-1.9,1.5-3.5,3.5-3.5
		l24.2-0.1l0,0c1.9,0,3.5,1.6,3.5,3.5c0,0.1,0,0.1,0,0.2c-2.5,22.8-20.3,40.8-43.1,43.6L55.9,99.5z"/>
	<path class="st2" d="M3.3,47.3c-1.9,0-3.5-1.6-3.5-3.5c0-0.1,0-0.1,0-0.2C2.3,20.9,20.1,2.8,42.9,0c1.9-0.1,3.6,1.3,3.7,3.2
		c0,0.1,0,0.2,0,0.3v35.4c0,1.9-1.6,3.5-3.5,3.5s-3.5-1.6-3.5-3.5l0,0V7.6c-8,1.8-15.4,5.9-21.1,11.8c-5.6,5.8-9.5,13.1-11.2,21
		L24,40.4v-14c0-1.9,1.6-3.5,3.5-3.5s3.5,1.6,3.5,3.5v17.4c0,1.9-1.5,3.5-3.5,3.5L3.3,47.3L3.3,47.3z"/>
	<path class="st3" d="M43.1,99.5h-0.3C20.1,96.7,2.3,78.7-0.2,55.9c-0.1-1.9,1.4-3.6,3.3-3.7c0.1,0,0.1,0,0.2,0l0,0l24.2,0.1
		c1.9,0,3.5,1.5,3.5,3.4c0,0,0,0,0,0v17.5c0,1.9-1.6,3.5-3.5,3.5S24,75.2,24,73.3v-14L7.3,59.2c1.7,7.9,5.6,15.2,11.2,21
		c5.8,5.9,13.1,10,21.1,11.8V60.6c0-1.9,1.6-3.5,3.5-3.5s3.5,1.6,3.5,3.5V96C46.6,98,45.1,99.5,43.1,99.5L43.1,99.5L43.1,99.5z"/>
	<path class="st4" d="M137.5,71.2v-18h-21.4v18h-7.2V30.1h7.2v16.7h21.4V30.1h7.2v41.1H137.5z"/>
	<path class="st4" d="M164,72c-2.1,0-4.3-0.4-6.3-1.1c-1.9-0.7-3.5-1.8-4.9-3.2c-1.4-1.4-2.5-3.1-3.2-5c-0.8-2-1.2-4.2-1.2-6.4
		c0-2.1,0.4-4.1,1.1-6.1c3.2-7.8,12-11.6,19.8-8.4c0.1,0,0.1,0.1,0.2,0.1c1.8,0.8,3.3,1.9,4.6,3.4c1.3,1.5,2.3,3.2,2.9,5.1
		c0.7,2.1,1,4.3,1,6.5v1.6h-22.9c0.1,1.1,0.4,2.2,0.9,3.2c0.5,1,1.1,1.9,1.9,2.6c0.8,0.8,1.8,1.4,2.9,1.8c1.2,0.4,2.5,0.7,3.8,0.7
		c1.6,0,3.1-0.3,4.6-0.9c1.5-0.5,2.8-1.4,4-2.5l3,4.3c-1.6,1.5-3.4,2.6-5.4,3.3C168.5,71.6,166.3,72,164,72z M171.9,53.8
		c-0.1-0.9-0.3-1.8-0.6-2.7c-0.7-2-2.2-3.5-4.1-4.4c-1.2-0.5-2.5-0.8-3.8-0.7c-1.2,0-2.5,0.2-3.6,0.7c-1,0.4-1.8,1.1-2.6,1.8
		c-0.7,0.7-1.2,1.6-1.6,2.5c-0.4,0.9-0.6,1.8-0.6,2.7H171.9z"/>
	<path class="st4" d="M181.5,71.2V41.4h6.5v4.3c1.2-1.5,2.6-2.7,4.3-3.6c1.6-1,3.5-1.5,5.4-1.5v6.4c-0.7-0.1-1.3-0.2-2-0.2
		c-0.7,0-1.5,0.1-2.2,0.3c-0.8,0.2-1.5,0.5-2.2,0.9c-0.7,0.4-1.3,0.8-1.9,1.3c-0.5,0.4-1,1-1.4,1.5v20.3L181.5,71.2z"/>
	<path class="st4" d="M199.8,71.2V41.4h6.5v4.3c1.2-1.5,2.6-2.7,4.3-3.6c1.6-1,3.5-1.5,5.4-1.5v6.4c-0.7-0.1-1.3-0.2-2-0.2
		c-0.7,0-1.5,0.1-2.2,0.3c-0.8,0.2-1.5,0.5-2.2,0.9c-0.7,0.4-1.3,0.8-1.9,1.3c-0.5,0.4-1,1-1.4,1.5v20.3L199.8,71.2z"/>
	<path class="st4" d="M254.7,71.2V51.8c0.1-1.4-0.3-2.8-1.1-3.9c-1-1.1-2.4-1.6-3.8-1.5c-1.4,0-2.8,0.4-4,1.2
		c-1.1,0.7-2.1,1.6-2.9,2.7v20.8h-6.5V51.8c0.1-1.4-0.3-2.8-1.1-3.9c-0.9-1.1-2.3-1.6-3.8-1.5c-1.4,0-2.8,0.4-4,1.3
		c-1.1,0.7-2.1,1.6-2.9,2.7v20.8h-6.5V41.4h6.5v4c0.4-0.5,0.9-1,1.4-1.5c0.7-0.6,1.4-1.1,2.2-1.5c0.9-0.5,1.9-0.9,2.8-1.2
		c1-0.3,2.1-0.5,3.2-0.6c1.9-0.1,3.8,0.4,5.4,1.5c1.3,1,2.3,2.3,2.8,3.9c0.5-0.7,1-1.4,1.6-2c0.7-0.7,1.5-1.3,2.3-1.8
		c0.9-0.5,1.9-0.9,2.9-1.2c1.1-0.3,2.1-0.5,3.2-0.5c2.3-0.1,4.6,0.7,6.3,2.2c1.5,1.5,2.2,3.7,2.2,6.8v21.5L254.7,71.2z"/>
	<path class="st4" d="M287.4,71.2v-4.1c-1.1,1.5-2.5,2.7-4.2,3.5c-1.7,0.9-3.5,1.3-5.4,1.3c-1.8,0-3.6-0.3-5.3-1
		c-1.6-0.7-3-1.7-4.2-3.1c-1.2-1.5-2.2-3.1-2.7-4.9c-0.7-2.1-1-4.4-1-6.6c0-2.2,0.3-4.4,1-6.5c0.6-1.8,1.5-3.5,2.7-4.9
		c1.1-1.3,2.6-2.4,4.2-3.1c1.7-0.7,3.5-1.1,5.3-1.1c1.8,0,3.7,0.4,5.3,1.2c1.7,0.9,3.1,2.1,4.3,3.6v-4.2h6.5v29.8H287.4z
		 M279.8,66.2c0.8,0,1.5-0.1,2.2-0.3c0.8-0.2,1.5-0.5,2.2-0.9c0.7-0.4,1.3-0.8,1.8-1.3c0.5-0.5,1-1,1.4-1.6V50.4
		c-0.4-0.6-0.9-1.1-1.4-1.5c-1.1-1-2.5-1.8-4-2.2c-0.7-0.2-1.5-0.3-2.2-0.3c-2.4-0.1-4.6,1-6.2,2.8c-0.8,0.9-1.3,2-1.7,3.1
		c-0.8,2.6-0.8,5.4,0,8c0.4,1.2,0.9,2.2,1.7,3.2c0.7,0.9,1.6,1.6,2.7,2.1C277.3,66,278.5,66.3,279.8,66.2L279.8,66.2z"/>
	<path class="st4" d="M319.4,71.2V52.6c0-2.3-0.5-4-1.6-4.8c-1.3-0.9-2.8-1.4-4.4-1.3c-1.6,0-3.1,0.4-4.5,1.2
		c-1.2,0.7-2.3,1.6-3.2,2.7v20.8h-6.5V41.4h6.5v4c0.6-0.6,1.2-1.2,1.8-1.7c0.8-0.6,1.6-1.1,2.4-1.5c0.9-0.5,1.9-0.8,2.9-1.1
		c1.1-0.3,2.2-0.4,3.4-0.4c3.2,0,5.6,0.8,7.2,2.5c1.6,1.6,2.4,4,2.4,7.1v21L319.4,71.2z"/>
	<path class="st4" d="M351.3,71.2V52.6c0-2.3-0.5-4-1.6-4.8c-1.3-0.9-2.8-1.4-4.4-1.3c-1.6,0-3.1,0.4-4.5,1.2
		c-1.2,0.7-2.3,1.6-3.2,2.7v20.8h-6.5V41.4h6.5v4c0.6-0.6,1.2-1.2,1.8-1.7c0.8-0.6,1.6-1.1,2.4-1.5c0.9-0.5,1.9-0.8,2.9-1.1
		c1.1-0.3,2.2-0.4,3.4-0.4c3.2,0,5.6,0.8,7.2,2.5c1.6,1.6,2.4,4,2.4,7.1v21L351.3,71.2z"/>
	<text transform="matrix(1 0 0 1 353.55 39.3306)" class="st4 st5 st6">TM</text>
</g>
</svg>
