<?xml version="1.0" standalone="no"?>
<!DOCTYPE svg PUBLIC "-//W3C//DTD SVG 20010904//EN"
 "http://www.w3.org/TR/2001/REC-SVG-20010904/DTD/svg10.dtd">
<svg version="1.0" xmlns="http://www.w3.org/2000/svg"
 width="152.000000pt" height="152.000000pt" viewBox="0 0 152.000000 152.000000"
 preserveAspectRatio="xMidYMid meet">
<metadata>
Created by potrace 1.11, written by Peter Selinger 2001-2013
</metadata>
<g transform="translate(0.000000,152.000000) scale(0.100000,-0.100000)"
fill="#000000" stroke="none">
<path d="M588 1509 c-21 -5 -73 -22 -115 -39 -225 -87 -392 -278 -455 -520
-24 -95 -20 -135 15 -146 12 -4 110 -7 217 -7 182 1 195 2 211 21 13 17 16 45
15 170 -1 160 -7 182 -52 182 -46 0 -54 -22 -54 -146 0 -63 -3 -115 -7 -115
-34 -6 -236 -3 -240 4 -2 4 3 31 13 60 47 144 159 282 287 356 66 38 164 74
177 66 6 -4 10 -96 10 -250 l0 -245 24 -15 c19 -13 28 -14 50 -4 14 7 27 15
27 18 1 3 2 138 3 299 2 284 1 294 -18 308 -23 16 -52 16 -108 3z"/>
<path d="M820 1505 c-12 -14 -15 -71 -15 -307 0 -265 1 -291 18 -309 22 -23
36 -24 65 -3 22 15 22 18 22 265 l0 251 33 -7 c17 -4 38 -12 45 -17 6 -6 12
-7 12 -4 0 4 33 -10 73 -31 86 -45 208 -161 255 -245 31 -53 72 -158 72 -182
0 -8 -39 -11 -122 -11 l-123 0 -5 123 c-5 130 -10 142 -56 142 -42 0 -49 -23
-50 -182 -1 -125 2 -153 15 -170 16 -19 29 -20 211 -21 107 0 205 3 217 7 28
9 37 37 28 94 -12 77 -73 233 -110 279 -5 7 -30 39 -54 70 -109 143 -291 247
-472 269 -35 5 -48 2 -59 -11z"/>
<path d="M32 716 c-29 -16 -33 -29 -27 -84 26 -222 202 -460 415 -560 126 -59
237 -83 273 -59 l23 15 -2 288 c-1 159 -2 295 -3 302 0 7 -12 17 -26 24 -19 9
-29 8 -50 -6 l-25 -16 0 -250 c0 -138 -4 -250 -8 -250 -22 0 -129 43 -177 70
-132 76 -244 217 -294 372 -7 21 -10 41 -7 46 4 6 201 9 239 3 4 0 7 -52 7
-115 0 -124 8 -146 54 -146 45 0 51 22 52 186 1 134 -1 155 -16 169 -15 13
-51 16 -214 18 -109 1 -205 -2 -214 -7z"/>
<path d="M1107 722 c-59 -5 -65 -23 -63 -193 1 -157 8 -179 52 -179 46 0 54
22 54 148 l0 117 125 1 c86 0 125 -3 125 -11 0 -30 -46 -141 -82 -196 -92
-144 -231 -247 -380 -284 l-28 -7 0 250 c0 248 0 251 -22 266 -29 21 -40 20
-64 -2 -18 -18 -19 -33 -19 -311 0 -277 1 -294 20 -307 24 -18 47 -18 116 0
283 74 489 277 559 550 24 93 25 116 7 141 -13 16 -31 18 -188 19 -96 1 -191
0 -212 -2z"/>
</g>
</svg>
