<svg xmlns="http://www.w3.org/2000/svg" viewBox="0 0 298 298"><defs><style>.cls-1{fill:#231f20;}</style></defs><title>bubble</title><g id="Layer_2" data-name="Layer 2"><g id="Layer_1-2" data-name="Layer 1"><path class="cls-1" d="M153.31,199.54c-20.07,0-36.25-8-39.51-18.81-9.19,3.8-18.81,6.8-28.56,5s-19-10.22-19.57-20.42A24.39,24.39,0,0,1,59,120c-5.6-5.56-10.4-11.76-10.94-19.62-.86-12.63,10.15-22.71,21.44-27.09a60.36,60.36,0,0,1,24.59-4C99.73,58.85,113,52,127.8,52c13.7,0,26.24,6,32.5,15.17a34.5,34.5,0,0,1,20.63-6.59c9.35,0,18.2,3.55,24,9.57.59,0,1.17,0,1.74,0a35.18,35.18,0,0,1,8.08-1c20.4,0,37,17.69,37,39.43a40.7,40.7,0,0,1-13,30c.47.73.93,1.46,1.33,2.2a22.8,22.8,0,0,1,1.28,18,29.74,29.74,0,0,1-14.91,17.45c-11.14,5.41-23.38,3.86-33,.84C193,189.75,175.51,199.54,153.31,199.54Zm-36.92-26.48a3.18,3.18,0,0,1,3.17,3.3c0,9.28,15.45,16.84,33.75,16.84s33.76-7.56,33.76-16.52a7.92,7.92,0,0,0-.66-3.09,3.18,3.18,0,0,1,4.1-4.18c8.93,3.56,21.94,6.66,33.13,1.22a23.6,23.6,0,0,0,11.64-13.69,16.55,16.55,0,0,0-.81-13,39.2,39.2,0,0,0-2.44-3.74,3.44,3.44,0,0,1,.5-4.57,34,34,0,0,0,12.88-26.94c0-18.24-13.75-33.09-30.65-33.09a28.85,28.85,0,0,0-7,.88,2.93,2.93,0,0,1-1,.09,17.68,17.68,0,0,0-2.82,0,3.09,3.09,0,0,1-2.7-1.09c-4.58-5.34-12.16-8.54-20.28-8.54-7.34,0-14.23,2.59-18.91,7.1a3.15,3.15,0,0,1-1.91.87,3.9,3.9,0,0,1-3.66-1.73c-4.27-8.86-15.79-14.82-28.65-14.82-13.29,0-24.92,6.21-28.94,15.45a3.17,3.17,0,0,1-3.17,1.9,54.14,54.14,0,0,0-24,3.46c-9.13,3.54-18,11.33-17.4,20.75.49,7.16,6.17,13,12.45,18.76a3.17,3.17,0,0,1-1.28,5.38c-7.94,2.25-13.7,10.87-12.84,19.22s8.25,15.55,16.47,16.08a3.16,3.16,0,0,1,2.94,3.56c-1,7.93,6.75,15.08,14.36,16.54,8.56,1.67,17.53-1.43,25.94-5,1.13-.48,2-.84,2.88-1.18A3.18,3.18,0,0,1,116.39,173.06Zm118.08-34.95h0Z"/><path class="cls-1" d="M95.47,213.31a14.94,14.94,0,1,1,14.94-14.94A15,15,0,0,1,95.47,213.31Zm0-23.53a8.6,8.6,0,1,0,8.6,8.59A8.61,8.61,0,0,0,95.47,189.78Z"/><path class="cls-1" d="M102.15,236.47a10.6,10.6,0,0,1-8.9-16.32A10.61,10.61,0,0,1,107.89,217h0a10.6,10.6,0,0,1-5.75,19.51Zm0-14.85a4.29,4.29,0,0,0-3.59,2,4.26,4.26,0,1,0,7.75,1.39,4.29,4.29,0,0,0-1.86-2.67h0A4.22,4.22,0,0,0,102.17,221.62Z"/><path class="cls-1" d="M117,246a8.56,8.56,0,1,1,8.56-8.56A8.56,8.56,0,0,1,117,246Zm0-10.78a2.22,2.22,0,1,0,2.22,2.22A2.23,2.23,0,0,0,117,235.21Z"/><path class="cls-1" d="M149,298C66.84,298,0,231.16,0,149S66.84,0,149,0,298,66.84,298,149,231.16,298,149,298ZM149,6.34C70.34,6.34,6.34,70.34,6.34,149S70.34,291.66,149,291.66s142.66-64,142.66-142.66S227.66,6.34,149,6.34Z"/></g></g></svg>