<svg xmlns="http://www.w3.org/2000/svg" viewBox="0 0 300 300"><defs><style>.cls-1{fill:#231f20;}.cls-2{fill:none;stroke:#231f20;stroke-miterlimit:10;stroke-width:8px;}</style></defs><title>clipboard</title><g id="Layer_2" data-name="Layer 2"><g id="Layer_1-2" data-name="Layer 1"><path class="cls-1" d="M150,300C67.29,300,0,232.71,0,150S67.29,0,150,0,300,67.29,300,150,232.71,300,150,300ZM150,6.38C70.81,6.38,6.38,70.81,6.38,150S70.81,293.62,150,293.62,293.62,229.19,293.62,150,229.19,6.38,150,6.38Z"/><path class="cls-1" d="M183.37,95.93H115.58V56h67.79ZM122,89.54h55V62.36H122Z"/><rect class="cls-1" x="111.07" y="113" width="75.04" height="6.38"/><rect class="cls-1" x="111.07" y="137.09" width="75.04" height="6.38"/><rect class="cls-1" x="111.07" y="185.27" width="75.04" height="6.38"/><rect class="cls-1" x="111.07" y="161.18" width="75.04" height="6.38"/><rect class="cls-1" x="111.07" y="209.35" width="38.93" height="6.38"/><polyline class="cls-2" points="118.63 77.93 86.45 78.25 86.45 240.61 211.96 240.61 211.96 78.58 180.76 78.58"/></g></g></svg>