<svg xmlns="http://www.w3.org/2000/svg" viewBox="0 0 299.8 299.8"><defs><style>.cls-1{fill:#231f20;}</style></defs><title>clock</title><g id="Layer_2" data-name="Layer 2"><g id="Layer_1-2" data-name="Layer 1"><path class="cls-1" d="M149.9,299.8C67.25,299.8,0,232.56,0,149.9S67.25,0,149.9,0,299.8,67.25,299.8,149.9,232.56,299.8,149.9,299.8Zm0-293.42C70.76,6.38,6.38,70.76,6.38,149.9S70.76,293.43,149.9,293.43,293.43,229,293.43,149.9,229,6.38,149.9,6.38Z"/><path class="cls-1" d="M149.9,248.89a99,99,0,1,1,99-99A99.1,99.1,0,0,1,149.9,248.89Zm0-191.59a92.61,92.61,0,1,0,92.61,92.6A92.7,92.7,0,0,0,149.9,57.3Z"/><polygon class="cls-1" points="201.94 193.72 146.71 151.94 146.71 91.95 153.09 91.95 153.09 148.77 205.79 188.64 201.94 193.72"/></g></g></svg>