<svg xmlns="http://www.w3.org/2000/svg" viewBox="0 0 71.7 71.7"><defs><style>.cls-1,.cls-2{fill:none;stroke-width:2px;}.cls-1,.cls-2,.cls-3{stroke:#231f20;}.cls-1{stroke-linecap:round;stroke-linejoin:round;}.cls-3{fill:#231f20;stroke-miterlimit:10;stroke-width:0.5px;}</style></defs><title>culture</title><g id="Layer_2" data-name="Layer 2"><g id="Layer_1-2" data-name="Layer 1"><g id="Hiring"><g id="Culture"><path id="Stroke-1" class="cls-1" d="M54.45,42.45l3.1-3.2c5.4-5.4,2.7-12.8-1.6-17.5a19.59,19.59,0,0,0-4.8-3.9c-2.2-1.2-9.1-3-13.7,1.4l-9.4,9.4c-2.5,2.5,3.9,5,7.1,1.8l2.4-2.4c3.5-3.2,7.9,3.2,13.4-1.1"/><path id="Stroke-3" class="cls-1" d="M17.75,41l-3.1-3.1c-10.5-10.6,7.6-28.6,18.2-18.2l2.1,2.1"/><path id="Stroke-5" class="cls-1" d="M42.55,30.45l12.1,12.8c2.5,2.6-1.2,7.6-4.4,4.3l-5.7-5.9"/><path id="Stroke-7" class="cls-1" d="M39.65,45.55l6.3,6.5c2.5,2.6,7.6-1.2,4.4-4.5l-6.1-6.3"/><path id="Stroke-9" class="cls-1" d="M37.75,52.75l3.1,3.2c2.5,2.6,7.4-1.1,4.3-4.4"/><path id="Stroke-11" class="cls-2" d="M38.35,53l.3.3a3,3,0,0,1,0,4.1l-2.9,2.9a3,3,0,0,1-4.1,0l-.3-.3a3,3,0,0,1,0-4.1l2.9-2.9a3,3,0,0,1,4.1,0Zm-3.1-6.2.3.3a3,3,0,0,1,0,4.1l-4.7,4.7a3,3,0,0,1-4.1,0l-.3-.2a3,3,0,0,1,0-4.1l4.7-4.7a2.87,2.87,0,0,1,4.1-.1Zm-2.8-6.4.3.3a3,3,0,0,1,0,4.1l-6.9,6.9a3,3,0,0,1-4.1,0l-.3-.3a3,3,0,0,1,0-4.1l6.9-6.9a2.78,2.78,0,0,1,4.1,0Zm-7.3-2,.3.3a3,3,0,0,1,0,4.1l-4.3,4.3a3,3,0,0,1-4.1,0l-.3-.3a3,3,0,0,1,0-4.1l4.3-4.3a3,3,0,0,1,4.1,0Z"/></g></g><path class="cls-3" d="M35.85,71.45a35.6,35.6,0,1,1,35.6-35.6A35.68,35.68,0,0,1,35.85,71.45Zm0-69.7a34.1,34.1,0,1,0,34.2,34.1A34.06,34.06,0,0,0,35.85,1.75Z"/></g></g></svg>