<svg xmlns="http://www.w3.org/2000/svg" viewBox="0 0 356.67 356.67"><defs><style>.cls-1{fill:#231f20;}</style></defs><title>hbdi</title><g id="Layer_2" data-name="Layer 2"><g id="Layer_1-2" data-name="Layer 1"><path d="M200.66,50.67l3.68.91c3.24.79,6.48,1.57,9.69,2.46a125.26,125.26,0,0,1,38.62,18.45l.1.06,0,.06-1.5,4.56c-1.15,3.51-2.29,7-3.55,10.5a10.45,10.45,0,0,0,3,11.77c2.35,2.16,4.57,4.38,6.62,6.63a10.35,10.35,0,0,0,7.78,3.6,11.72,11.72,0,0,0,4-.75c3.38-1.22,6.79-2.35,10.2-3.48l4.87-1.64a128,128,0,0,1,16.52,33.08c.25.72.51,1.43.77,2.14.33.92.67,1.83.94,2.75.42,1.43.75,2.89,1.08,4.36l.52,2.24c.2.85.42,1.68.64,2.52.34,1.3.68,2.6.94,4a10.21,10.21,0,0,0,.31,1.24l-.13.06-.77.39-.21.11-.2.12-.29.17c-3.57,1.94-7.6,3.94-12.64,6.29a10.55,10.55,0,0,0-6.39,10.54c.11,3,.11,6.18,0,9.27a10.89,10.89,0,0,0,1.66,6.48,9.49,9.49,0,0,0,2.78,2.71l.54.44.68.38.21.12.21.1c3.39,1.62,6.75,3.32,10.1,5l4.11,2.07.33.17a11.72,11.72,0,0,0-.34,1.36c-.59,3.15-1.42,6.25-2.3,9.54l-.12.46c-.15.54-.27,1.09-.4,1.64s-.18.84-.29,1.23c-.94,3.21-2.2,6.53-3.31,9.47-.24.62-.45,1.25-.66,1.89s-.41,1.21-.66,1.81c-1.49,3.61-3.29,7.15-4.85,10.13-.25.48-.48,1-.7,1.45-.14.29-.27.59-.43.88-1.56,2.85-3.41,5.7-5.49,8.86-.37.57-.72,1.15-1.07,1.74-.21.36-.42.72-.63,1l-.1.12-.26.37-.21.32L278.72,251c-3.48-1.18-7-2.36-10.47-3.44a9.49,9.49,0,0,0-2.82-.42,11.16,11.16,0,0,0-7.38,2.8c-2.85,2.6-5.59,5.34-8.14,8.15a11.08,11.08,0,0,0-2.33,10.17c1.22,4,2.55,8,3.89,11.94l1.21,3.62,0,.18.06.21A129.89,129.89,0,0,1,241,291.53l-.55.29a126.57,126.57,0,0,1-11.91,5.71l-.63.27-.58.24a123.88,123.88,0,0,1-13,4.56c-3.26.91-6.55,1.7-9.84,2.49l-3.78.91h-.42l-1-2L198,301.52c-1.75-3.38-3.48-6.78-5.12-10.21a10.06,10.06,0,0,0-9.47-6H183c-1.57.06-3.13.08-4.69.08s-3,0-4.54-.07h-.46a10.08,10.08,0,0,0-9.48,6c-1.27,2.67-2.61,5.29-4,7.92l-.51,1-1.45,2.91c-.45.92-.9,1.84-1.41,2.84H156l-3.64-.9c-3.25-.79-6.51-1.58-9.73-2.48A125.23,125.23,0,0,1,104,284.18l-.1-.06,0-.06,1.51-4.58c1.14-3.5,2.28-7,3.53-10.48a10.44,10.44,0,0,0-3-11.78c-2.35-2.15-4.57-4.38-6.62-6.61A10.32,10.32,0,0,0,91.63,247a11.75,11.75,0,0,0-4,.76c-3.38,1.21-6.78,2.35-10.19,3.48l-4.89,1.64A128.42,128.42,0,0,1,56,219.8c-.24-.72-.5-1.44-.77-2.16-.33-.91-.67-1.82-.94-2.75-.42-1.44-.75-2.91-1.09-4.38l-.51-2.22c-.2-.85-.42-1.68-.64-2.52-.34-1.3-.68-2.6-.94-4-.08-.4-.18-.8-.31-1.23l.1-.05L52,200l.53-.31c3.55-1.92,7.54-3.91,12.52-6.23a10.52,10.52,0,0,0,6.38-10.54c-.1-3-.1-6.11,0-9.27a10.83,10.83,0,0,0-1.65-6.48A9.52,9.52,0,0,0,67,164.49a8.43,8.43,0,0,0-1.31-.88l-.19-.11-.2-.1c-3.37-1.61-6.71-3.3-10-5l-4.17-2.1-.33-.17a10.62,10.62,0,0,0,.34-1.35c.59-3.13,1.41-6.21,2.28-9.47l.15-.55c.14-.55.27-1.11.4-1.67s.17-.82.28-1.19c.94-3.22,2.2-6.54,3.3-9.46.25-.64.47-1.29.69-1.93s.39-1.19.64-1.78c1.48-3.58,3.27-7.12,4.83-10.1.25-.48.48-1,.71-1.46.14-.3.28-.61.44-.9,1.56-2.85,3.4-5.68,5.46-8.82.38-.58.73-1.17,1.08-1.76.22-.36.43-.73.65-1.08l.11-.13.24-.34c.08-.11.15-.22.21-.32,1.79.59,3.56,1.19,5.34,1.79,3.48,1.18,7,2.36,10.47,3.44a9.81,9.81,0,0,0,2.82.41,11.17,11.17,0,0,0,7.38-2.79c2.84-2.59,5.58-5.33,8.13-8.15a11.05,11.05,0,0,0,2.34-10.18c-1.23-4-2.57-8-3.92-12L104,72.7l-.06-.28a129.89,129.89,0,0,1,11.82-7.28l.54-.29a124.41,124.41,0,0,1,11.92-5.71l.65-.28.55-.23a124.78,124.78,0,0,1,13-4.56c3.24-.91,6.52-1.69,9.8-2.48l3.82-.92h.42l1.06,2.13,1.2,2.41c1.74,3.36,3.46,6.73,5.09,10.15a10,10,0,0,0,9.47,6h.47c1.56,0,3.12-.08,4.68-.08s3,0,4.54.08h.46a10.06,10.06,0,0,0,9.47-6c1.29-2.69,2.64-5.33,4-8l.46-.91,1.39-2.8c.48-1,1-1.93,1.49-3h.44m.91-7.59h-4.75c-.18.25-.38.49-.57.74a6.44,6.44,0,0,0-2.52,2.85c-1.07,2.12-2.11,4.27-3.17,6.39-1.53,3-3.07,6-4.52,9a2.57,2.57,0,0,1-2.63,1.73h-.2q-2.4-.09-4.8-.09c-1.65,0-3.3,0-4.94.09h-.21a2.54,2.54,0,0,1-2.62-1.71c-1.67-3.49-3.42-6.93-5.2-10.37-.81-1.6-1.59-3.21-2.4-4.81a7.17,7.17,0,0,0-2.65-3.15c-.18-.23-.37-.45-.54-.68h-4.76c-4.91,1.22-9.87,2.32-14.74,3.69a131.92,131.92,0,0,0-13.82,4.82l-1.29.55a131.83,131.83,0,0,0-12.63,6.06l-.88.46a138,138,0,0,0-12.31,7.63,11.54,11.54,0,0,0-2.26,2,4.56,4.56,0,0,0-.76,1.25,3.67,3.67,0,0,0-.25.48A4.91,4.91,0,0,0,96,72c0,.14.08.33.1.48A8.91,8.91,0,0,0,96.4,74c.06.19.12.37.19.56s0,.2.07.32c1.75,5.24,3.56,10.46,5.17,15.75a3.51,3.51,0,0,1-.7,2.86c-2.41,2.66-5,5.22-7.63,7.65a3.67,3.67,0,0,1-2.26.8,2.22,2.22,0,0,1-.59-.07c-5.36-1.66-10.65-3.54-16-5.29a10.23,10.23,0,0,0-3.16-.62c-2,0-3.33,1-5,3.33-.13.19-.24.4-.37.59s-.12.14-.19.24c-.73,1.05-1.3,2.17-2,3.24-2,3.06-4,6.14-5.77,9.33-.45.81-.79,1.67-1.22,2.49-1.84,3.52-3.61,7.06-5.12,10.72-.54,1.28-.92,2.62-1.41,3.91-1.25,3.31-2.5,6.62-3.49,10-.29,1-.47,2-.74,3-.93,3.48-1.87,7-2.55,10.56a11,11,0,0,1-.57,1.67v3.7l.41.41c.46,1.58,1.65,2.65,4.21,3.93,4.77,2.4,9.52,4.84,14.33,7.15a3.79,3.79,0,0,1,.48.37,2.91,2.91,0,0,1,.88.71,3.27,3.27,0,0,1,.41,2q-.15,4.94,0,9.86a3,3,0,0,1-2,3.4c-4.54,2.12-9,4.32-13.44,6.72l-.13.09c-.48.25-1,.49-1.47.73a6.75,6.75,0,0,0-3.08,2.72l-.6.5v4.23a13.09,13.09,0,0,1,.55,1.71c.44,2.31,1.11,4.53,1.65,6.8s1,4.69,1.7,7c.52,1.77,1.21,3.46,1.8,5.2a136.91,136.91,0,0,0,17.55,35.08c1.68,2.39,3.11,3.45,5.14,3.45a10.91,10.91,0,0,0,3.44-.71c5.07-1.71,10.17-3.35,15.21-5.16a4.46,4.46,0,0,1,1.48-.31,2.89,2.89,0,0,1,2.18,1.14c2.25,2.47,4.62,4.83,7.08,7.09a2.87,2.87,0,0,1,1,3.62c-1.81,5-3.41,10.15-5.1,15.23-1.45,4.39-.93,6,2.91,8.73a132.3,132.3,0,0,0,41,19.55c4.8,1.33,9.65,2.44,14.48,3.65h4.76c.18-.25.38-.5.57-.74a6.5,6.5,0,0,0,2.52-2.85c1.07-2.11,2.09-4.24,3.15-6.35,1.54-3,3.08-6,4.54-9.06a2.57,2.57,0,0,1,2.63-1.72h.2c1.6.06,3.2.08,4.8.08s3.3,0,4.94-.08h.21a2.55,2.55,0,0,1,2.62,1.72c1.68,3.51,3.45,7,5.24,10.43.79,1.58,1.56,3.17,2.36,4.75a7.23,7.23,0,0,0,2.65,3.15c.18.22.37.45.54.68h4.75c4.92-1.22,9.88-2.32,14.75-3.69a132.73,132.73,0,0,0,13.82-4.82l1.29-.55a132.66,132.66,0,0,0,12.61-6c.3-.17.61-.32.91-.48a137.76,137.76,0,0,0,12.3-7.62,11.54,11.54,0,0,0,2.26-2,4.71,4.71,0,0,0,.76-1.25,4.52,4.52,0,0,0,.25-.49,5,5,0,0,0,.16-2c0-.14-.08-.33-.1-.48a9.82,9.82,0,0,0-.31-1.46c-.06-.19-.13-.38-.19-.57s0-.19-.07-.31c-1.75-5.25-3.56-10.47-5.17-15.75a3.49,3.49,0,0,1,.7-2.86c2.41-2.67,5-5.22,7.62-7.65a3.73,3.73,0,0,1,2.27-.81,2.21,2.21,0,0,1,.59.08c5.36,1.66,10.65,3.53,16,5.29a10.48,10.48,0,0,0,3.16.62c1.95,0,3.32-1,5-3.33.13-.2.24-.4.37-.6s.12-.13.19-.23c.72-1,1.29-2.15,2-3.2,2-3.08,4-6.17,5.8-9.37.44-.8.77-1.65,1.19-2.46,1.85-3.53,3.63-7.08,5.14-10.75.54-1.28.92-2.62,1.41-3.92,1.25-3.31,2.49-6.61,3.49-10,.29-1,.47-2,.74-3,.93-3.49,1.87-7,2.55-10.56a11.76,11.76,0,0,1,.57-1.67v-3.69c-.14-.13-.27-.28-.41-.41-.46-1.58-1.65-2.65-4.21-3.94-4.77-2.39-9.52-4.84-14.33-7.14a3.5,3.5,0,0,1-.46-.36,2.8,2.8,0,0,1-.9-.72,3.27,3.27,0,0,1-.41-2q.15-4.94,0-9.86a3,3,0,0,1,2-3.41c4.53-2.11,9-4.31,13.44-6.71l.12-.09,1.48-.74a6.68,6.68,0,0,0,3.08-2.71l.6-.5v-4.23a13.59,13.59,0,0,1-.55-1.71c-.44-2.32-1.11-4.54-1.65-6.81s-1-4.68-1.7-7c-.52-1.76-1.21-3.45-1.8-5.19a136.49,136.49,0,0,0-17.55-35.09c-1.68-2.4-3.11-3.45-5.14-3.45a11.1,11.1,0,0,0-3.44.7c-5.07,1.72-10.18,3.35-15.21,5.17a4.42,4.42,0,0,1-1.48.3,2.85,2.85,0,0,1-2.18-1.14c-2.25-2.46-4.62-4.83-7.08-7.09a2.86,2.86,0,0,1-1-3.61c1.82-5,3.42-10.15,5.11-15.24,1.45-4.38.93-6-2.91-8.72a132.41,132.41,0,0,0-41-19.55c-4.8-1.33-9.66-2.44-14.49-3.65Z"/><path class="cls-1" d="M178.33,356.67C80,356.67,0,276.67,0,178.33S80,0,178.33,0,356.67,80,356.67,178.33,276.67,356.67,178.33,356.67Zm0-349.08C84.18,7.59,7.59,84.18,7.59,178.33S84.18,349.08,178.33,349.08s170.75-76.6,170.75-170.75S272.48,7.59,178.33,7.59Z"/><path class="cls-1" d="M178.33,258.64a80.31,80.31,0,1,1,80.31-80.31A80.4,80.4,0,0,1,178.33,258.64Zm0-153a72.73,72.73,0,1,0,72.73,72.72A72.8,72.8,0,0,0,178.33,105.61Z"/><path d="M147.23,224.43a2.92,2.92,0,0,1-.51,0h0A3.79,3.79,0,0,1,144,222.6a3.75,3.75,0,0,1-.47-1.19c0-.1,0-.2-.05-.3l-12.22-85.59a3.68,3.68,0,0,1-.06-.66,3.88,3.88,0,0,1,.24-1.28,3.8,3.8,0,0,1,2.29-2.26,2.69,2.69,0,0,1,1.3-.22,3.49,3.49,0,0,1,.65.06l84.38,13.45.23,0a4,4,0,0,1,1.17.46h0a3.68,3.68,0,0,1,1.25,1.23h0a4,4,0,0,1,.55,1.51,3.57,3.57,0,0,1,0,1.3,1.74,1.74,0,0,1-.05.22L208.5,205.6c0,.15-.09.3-.14.44a3.82,3.82,0,0,1-.84,1.33,3.74,3.74,0,0,1-1.37.89l-.4.13L148.3,224.27l-.3.08A3.3,3.3,0,0,1,147.23,224.43Zm-7.76-85,10.91,76.37,51.3-14.18,13.09-50.18Z"/><path d="M253.43,182.13H103.23a3.8,3.8,0,0,1,0-7.59h150.2a3.8,3.8,0,1,1,0,7.59Z"/><path d="M178.33,257.23a3.8,3.8,0,0,1-3.79-3.8V103.23a3.8,3.8,0,0,1,7.59,0v150.2A3.8,3.8,0,0,1,178.33,257.23Z"/></g></g></svg>