<svg xmlns="http://www.w3.org/2000/svg" viewBox="0 0 300 300"><defs><style>.cls-1{fill:#231f20;}</style></defs><title>idea</title><g id="Layer_2" data-name="Layer 2"><g id="Layer_1-2" data-name="Layer 1"><path class="cls-1" d="M150,300C67.29,300,0,232.71,0,150S67.29,0,150,0,300,67.29,300,150,232.71,300,150,300ZM150,6.38C70.81,6.38,6.38,70.81,6.38,150S70.81,293.62,150,293.62,293.62,229.2,293.62,150,229.19,6.38,150,6.38Z"/><path class="cls-1" d="M182.13,83.23a3.18,3.18,0,0,1-3.19-3.07l-.6-16.45a3.18,3.18,0,0,1,3.07-3.3,3,3,0,0,1,3.31,3.07l.6,16.44a3.2,3.2,0,0,1-3.07,3.31Z"/><path class="cls-1" d="M182,83.37h-.12l-16.44-.6a3.19,3.19,0,0,1-3.08-3.3,3.06,3.06,0,0,1,3.31-3.07l16.45.6a3.19,3.19,0,0,1-.12,6.38Z"/><path class="cls-1" d="M118.9,146.59a3.21,3.21,0,0,1-3.2-3.08l-.61-16.81a3.18,3.18,0,0,1,3.07-3.3h.12a3.2,3.2,0,0,1,3.19,3.08l.62,16.81a3.19,3.19,0,0,1-3.08,3.3Z"/><path class="cls-1" d="M135.23,130.25h-.12l-16.81-.61a3.19,3.19,0,0,1,.12-6.38h.11l16.82.61a3.19,3.19,0,0,1-.12,6.38Z"/><path class="cls-1" d="M111.06,106.38a3.19,3.19,0,0,1-3.19-3.2,42.13,42.13,0,0,1,71.92-29.79,3.19,3.19,0,1,1-4.51,4.52,35.75,35.75,0,0,0-61,25.27A3.19,3.19,0,0,1,111.06,106.38Z"/><path class="cls-1" d="M150,145.32A41.83,41.83,0,0,1,120.21,133a3.19,3.19,0,0,1,4.51-4.51,35.75,35.75,0,0,0,61-25.28,3.19,3.19,0,1,1,6.38,0A42.18,42.18,0,0,1,150,145.32Z"/><path class="cls-1" d="M196.83,159.19a3.2,3.2,0,0,1-2.36-5.34q2.34-2.58,4.91-4.92a66.36,66.36,0,1,0-98.56.2c1.43,1.57,2.92,3.07,4.49,4.5a3.19,3.19,0,0,1-4.3,4.71q-2.58-2.34-4.92-4.92a72.74,72.74,0,1,1,107.8,0c-1.77,1.64-3.27,3.14-4.7,4.71A3.15,3.15,0,0,1,196.83,159.19Z"/><path class="cls-1" d="M178.82,205.89a3.19,3.19,0,0,1-3.19-3.2,72.53,72.53,0,0,1,18.84-48.84c1.78-1.64,3.28-3.14,4.7-4.71a3.19,3.19,0,1,1,4.72,4.29q-2.32,2.58-4.91,4.93a66.07,66.07,0,0,0-17,44.33A3.19,3.19,0,0,1,178.82,205.89Z"/><path class="cls-1" d="M121.16,205.89a3.19,3.19,0,0,1-3.19-3.2,66.2,66.2,0,0,0-17.19-44.55c-1.5-1.35-3.13-3-4.69-4.71a3.19,3.19,0,1,1,4.72-4.29c1.42,1.57,2.92,3.07,4.48,4.5a72.63,72.63,0,0,1,19.06,49.05A3.19,3.19,0,0,1,121.16,205.89Z"/><path class="cls-1" d="M199,158.36l-4.51-4.51q2.34-2.58,4.91-4.92l4.51,4.5Q201.57,156,199,158.36Z"/><path class="cls-1" d="M121.17,240.73a3.19,3.19,0,0,1-.78-6.29L178,219.83a3.19,3.19,0,0,1,1.57,6.19L122,240.63A3.11,3.11,0,0,1,121.17,240.73Z"/><path class="cls-1" d="M121.17,258.26a3.19,3.19,0,0,1-.78-6.29L178,237.35a3.19,3.19,0,0,1,1.57,6.19L122,258.16A3.64,3.64,0,0,1,121.17,258.26Z"/><path class="cls-1" d="M121.17,223.2a3.19,3.19,0,0,1-.78-6.28L178,202.3a3.19,3.19,0,1,1,1.57,6.19L122,223.11A3.61,3.61,0,0,1,121.17,223.2Z"/><path class="cls-1" d="M150,268.14a37.66,37.66,0,0,1-22.81-7.61,3.19,3.19,0,0,1,3.84-5.1,32.06,32.06,0,0,0,37.94,0,3.19,3.19,0,1,1,3.84,5.1A37.66,37.66,0,0,1,150,268.14Z"/></g></g></svg>