<svg xmlns="http://www.w3.org/2000/svg" viewBox="0 0 300 300"><defs><style>.cls-1{fill:#231f20;}.cls-2{fill-rule:evenodd;}</style></defs><title>journey</title><g id="Layer_2" data-name="Layer 2"><g id="Layer_1-2" data-name="Layer 1"><path class="cls-1" d="M150,300C67.29,300,0,232.71,0,150S67.29,0,150,0,300,67.29,300,150,232.71,300,150,300ZM150,6.38C70.81,6.38,6.38,70.81,6.38,150S70.81,293.62,150,293.62,293.62,229.19,293.62,150,229.19,6.38,150,6.38Z"/><path class="cls-1" d="M205.36,78.45a5.88,5.88,0,0,1,1.35.15c10.07,2.23,20.09,4.63,30.16,6.87,1.83.41,2.44,1.11,2.44,3.08q-.12,45.89-.05,91.78,0,11.65,0,23.3v2.94l-19.17-4.4c-4.76-1.1-9.48-2.43-14.29-3.17a9.11,9.11,0,0,0-1.29-.09,13.18,13.18,0,0,0-5.16,1.16c-15.28,6.84-30.5,13.83-45.71,20.85a5.35,5.35,0,0,1-4.82.11c-14-5.92-28-11.72-42-17.63a9.89,9.89,0,0,0-3.89-.84,10.21,10.21,0,0,0-3.75.76q-17.86,7-35.76,13.92c-.77.3-1.56.55-2.69.95V134.07c0-11.18,0-22.37,0-33.55a2.51,2.51,0,0,1,1.85-2.76c13-5,26-10.12,39-15.13a3.1,3.1,0,0,1,1.12-.19,4,4,0,0,1,1.48.28q21.6,8.91,43.15,18a9.61,9.61,0,0,0,8.45-.16q23.64-11,47.39-21.66a5.48,5.48,0,0,1,2.21-.43m0-6.38a11.8,11.8,0,0,0-4.84,1c-18.15,8.21-33.22,15.1-47.45,21.69a4,4,0,0,1-1.7.47,4.16,4.16,0,0,1-1.57-.39c-14.58-6.18-29.34-12.29-43.21-18a10.24,10.24,0,0,0-3.91-.76,9.65,9.65,0,0,0-3.42.61Q89,80.61,78.78,84.61q-9.27,3.61-18.54,7.2a8.79,8.79,0,0,0-5.93,8.74c0,8.61,0,17.21,0,25.82v91.82a6.38,6.38,0,0,0,6.39,6.38,6.47,6.47,0,0,0,2.12-.36l1-.36c.7-.23,1.28-.44,1.86-.66l7.6-2.95q14.1-5.48,28.18-11a4,4,0,0,1,1.42-.32,3.51,3.51,0,0,1,1.41.34q10.36,4.38,20.75,8.7,10.65,4.46,21.28,8.93a12,12,0,0,0,4.79,1,12.32,12.32,0,0,0,5.2-1.21C170.9,220,186.5,212.83,202,205.9a6.81,6.81,0,0,1,2.55-.61l.33,0c3.15.49,6.3,1.26,9.64,2.07,1.4.35,2.79.69,4.18,1l10.93,2.51,8.24,1.89a6.27,6.27,0,0,0,1.43.16,6.37,6.37,0,0,0,6.38-6.38V196.26l0-15.93V165.82q0-38.62.05-77.26c0-4.94-2.63-8.25-7.44-9.32s-9.88-2.24-14.82-3.38c-5.11-1.18-10.22-2.36-15.33-3.5a13.14,13.14,0,0,0-2.74-.29Z"/><path class="cls-2" d="M199.19,129.07c-2.41,1-4.47,1.84-6.58,2.63-2.58,1-4.81.17-5.73-1.95-1-2.28,0-4.51,2.52-5.68,2-.94,4.11-1.77,6.45-2.76-1-2.45-2-4.75-2.81-7.14a4,4,0,0,1,5-5.21,6,6,0,0,1,2.82,2.76,65.71,65.71,0,0,1,2.8,6.32c2.17-.9,4.15-1.73,6.14-2.54,2.85-1.17,5.18-.35,6.15,2.15s-.14,4.37-3,5.6l-6,2.52,2.41,6c1.21,3.07.56,5.29-1.84,6.31s-4.58-.1-5.85-3C200.83,133.16,200.08,131.23,199.19,129.07Z"/><path class="cls-2" d="M132.83,150c.57.41,2,.95,2.69,2,2.09,3.16,4,6.47,5.78,9.8a4,4,0,0,1-1.31,5.34,4,4,0,0,1-5.59-1,107.31,107.31,0,0,1-6.13-10.66C127,152.88,129.25,149.93,132.83,150Z"/><path class="cls-2" d="M184.36,162.61A14.71,14.71,0,0,1,183,165.9c-2.3,2.81-4.65,5.59-7.14,8.23-1.86,2-4.31,2.05-6,.46s-1.79-4.1,0-6.2c2.22-2.58,4.44-5.15,6.64-7.74a3.84,3.84,0,0,1,4.8-1.22C182.55,160.08,183.39,161.56,184.36,162.61Z"/><path class="cls-2" d="M128.07,140.51c-.91,1-1.74,2.45-3,3.24a3.26,3.26,0,0,1-4.41-.81c-1.9-2.43-4-3.78-7.28-3.52-1.86.14-3.27-2-3.23-4.12a4,4,0,0,1,3.73-4,13.21,13.21,0,0,1,13,6.35A24.71,24.71,0,0,1,128.07,140.51Z"/><path class="cls-2" d="M157.7,183.65a19.31,19.31,0,0,1-11.49-3.8,4.31,4.31,0,0,1-1.33-6.1c1.31-1.84,3.63-2,6.05-.82a25.86,25.86,0,0,0,6.93,2.28c3,.45,4.83,1.79,4.79,4.27s-1.87,4-4.71,4.16C157.63,183.66,157.32,183.65,157.7,183.65Z"/><path class="cls-2" d="M87.62,160.38c3.88,0,5.75,3,4.45,6a51.18,51.18,0,0,1-2.86,5.56,4,4,0,0,1-5.41,1.62,3.92,3.92,0,0,1-2-5.27A33.48,33.48,0,0,1,85,162.32,8.63,8.63,0,0,1,87.62,160.38Z"/><path class="cls-2" d="M184.71,148.69c.89-2.6,2.24-5.73,5-7.89,1.49-1.17,3.32-.72,4.71.51a3.57,3.57,0,0,1,1.08,4.42,44.59,44.59,0,0,1-3.6,6.21,3.58,3.58,0,0,1-4.36,1.28C185.77,152.59,184.66,151.4,184.71,148.69Z"/><path class="cls-2" d="M98.47,153.78c-3.72.07-6-3.35-4.37-6a33.74,33.74,0,0,1,4.24-5.52,3.91,3.91,0,0,1,5.47-.33,4.07,4.07,0,0,1,.82,5.63,40.88,40.88,0,0,1-3.75,4.74A9.47,9.47,0,0,1,98.47,153.78Z"/></g></g></svg>