<svg xmlns="http://www.w3.org/2000/svg" viewBox="0 0 300.67 300.67"><defs><style>.cls-1{fill:#231f20;}</style></defs><title>knowledge</title><g id="Layer_2" data-name="Layer 2"><g id="Layer_1-2" data-name="Layer 1"><path class="cls-1" d="M150.33,300.67a150.57,150.57,0,0,1-71.56-18.1h0A150.33,150.33,0,0,1,0,150.33a152,152,0,0,1,2.32-26.21v0a150.31,150.31,0,0,1,296-.09h0A150.14,150.14,0,0,1,221.9,282.57h0A150.61,150.61,0,0,1,150.33,300.67ZM83.49,277.85c41,21.5,92.71,21.49,133.68,0V247.34H202.35c-13.25,0-20.27-7.07-20.31-20.37l0-2.25c0-.84,0-1.68,0-2.52a30.51,30.51,0,0,1,.14-3.18c.14-1.47.24-2.79.24-4,0-4.74-1.45-7.35-6.39-8.88a8,8,0,0,1-4.88-4.16,9.51,9.51,0,0,1-.91-4.18,12.79,12.79,0,0,1,.88-4.54,10.12,10.12,0,0,1,1-2c7.67-11.67,10-25,11.31-37.6a60.39,60.39,0,0,1,20.89-39.43,64.51,64.51,0,0,1,13-8.7,3.19,3.19,0,0,1,4.29,1.4,3.15,3.15,0,0,1,.35,1.44,3.22,3.22,0,0,1-1.76,2.87,58.21,58.21,0,0,0-11.74,7.84,54,54,0,0,0-18.7,35.26c-1.42,13.43-3.9,27.63-12.32,40.43a5.19,5.19,0,0,0-.33.76,6.41,6.41,0,0,0-.46,2.25,3.31,3.31,0,0,0,.28,1.39,1.53,1.53,0,0,0,1,.83c9.3,2.88,10.93,9.51,10.93,15a43.8,43.8,0,0,1-.3,4.66c-.08.83-.11,1.67-.11,2.51s0,1.59.05,2.38l0,2.41c0,9.78,4.19,14,13.93,14h18a3.2,3.2,0,0,1,3.2,3.2v30.13A143.8,143.8,0,0,0,292.17,126a58.64,58.64,0,0,0-35.63-20.29,3.21,3.21,0,0,1-2.69-3.16,3,3,0,0,1,0-.51,3.23,3.23,0,0,1,3.67-2.65,65.08,65.08,0,0,1,32.14,15A143.94,143.94,0,0,0,11,114.42a65.09,65.09,0,0,1,40.86-15.9,3.22,3.22,0,0,1,3.28,3.1v.1a3.19,3.19,0,0,1-3.1,3.19A58.76,58.76,0,0,0,8.48,126.05,145.56,145.56,0,0,0,6.4,150.33,143.91,143.91,0,0,0,77.1,274.27V244.14a3.2,3.2,0,0,1,3.2-3.2h18c9.73,0,13.9-4.21,13.92-14l0-2.37c0-.8,0-1.6,0-2.4s0-1.69-.11-2.53c-.13-1.33-.29-2.92-.29-4.64,0-5.45,1.62-12.09,10.93-15a1.52,1.52,0,0,0,1-.83,3.36,3.36,0,0,0,.27-1.4,6.28,6.28,0,0,0-.45-2.23,4.75,4.75,0,0,0-.34-.77c-8.41-12.81-10.89-27-12.31-40.43-2.24-21.07-16.59-38.73-37.44-46.09a3.21,3.21,0,0,1-2.14-3,3,3,0,0,1,.19-1.06,3.21,3.21,0,0,1,4.08-2c23.2,8.2,39.16,27.91,41.67,51.45,1.34,12.63,3.64,25.93,11.3,37.6a10.27,10.27,0,0,1,1,2,13,13,0,0,1,.88,4.53,9.61,9.61,0,0,1-.92,4.2,8,8,0,0,1-4.87,4.15c-5,1.53-6.39,4.14-6.39,8.9a39.42,39.42,0,0,0,.24,4c.1,1.05.14,2.12.14,3.2,0,.84,0,1.69,0,2.54l0,2.22c0,13.29-7.05,20.33-20.3,20.36H83.49Z"/><path class="cls-1" d="M244.53,114.51a3.23,3.23,0,0,1-1.06-.18,3.2,3.2,0,0,1-2-4.08l9.34-26.47a3.2,3.2,0,0,1,6,2.13l-9.33,26.47A3.21,3.21,0,0,1,244.53,114.51Z"/><path class="cls-1" d="M244.23,114.64a3.07,3.07,0,0,1-1.28-.27l-25.72-11.23a3.2,3.2,0,1,1,2.56-5.86l25.72,11.23a3.2,3.2,0,0,1-1.28,6.13Z"/><path class="cls-1" d="M59.6,114.89a3.22,3.22,0,0,1-3-4.37,102.67,102.67,0,0,1,189.69-3.27,3.2,3.2,0,0,1-5.87,2.55,96.27,96.27,0,0,0-177.86,3.06A3.21,3.21,0,0,1,59.6,114.89Z"/></g></g></svg>