<svg xmlns="http://www.w3.org/2000/svg" viewBox="0 0 362 362"><title>team</title><g id="Layer_2" data-name="Layer 2"><g id="Layer_1-2" data-name="Layer 1"><path d="M180.92,149.5a61,61,0,1,1,61-61A61,61,0,0,1,180.92,149.5Zm0-114.25a53.28,53.28,0,1,0,53.27,53.28A53.33,53.33,0,0,0,180.92,35.25Z"/><path d="M219,133l-24.62-13.56a11,11,0,0,1-4.55-6.74c-1.27-7.72,2.78-13.58,6-18.29,1.59-2.29,3.39-4.9,3.27-6.25l-.49-.8A13.14,13.14,0,0,1,197.43,85c-.89-2.53-.79-5.68-.7-8.72a23,23,0,0,0-.22-5.71c-3.2-10.07-15.09-10.23-15.59-10.23s-12.39.16-15.59,10.23a22.55,22.55,0,0,0-.22,5.71c.09,3,.19,6.19-.7,8.72a13.14,13.14,0,0,1-1.19,2.35,8.1,8.1,0,0,0-.52.94c-.09,1.21,1.71,3.82,3.3,6.11,3.26,4.71,7.31,10.57,6,18.29a10.83,10.83,0,0,1-4.16,6.49l-25,13.81-3.72-6.74,24.62-13.57a5.14,5.14,0,0,0,.67-1.24c.76-4.65-2.05-8.72-4.78-12.65-2.55-3.7-5-7.19-4.61-11.31a9.45,9.45,0,0,1,1.58-4.12,8.25,8.25,0,0,0,.52-.93c.41-1.16.33-3.79.26-5.9-.09-2.89-.19-5.88.58-8.3,4.94-15.52,22.17-15.64,22.95-15.6.44.11,18,.08,22.91,15.6.77,2.42.67,5.41.58,8.3-.07,2.11-.15,4.74.26,5.9a9.74,9.74,0,0,0,.51.93,9.21,9.21,0,0,1,1.58,4.12c.37,4.12-2.05,7.61-4.61,11.31-2.72,3.93-5.54,8-4.77,12.64a3.26,3.26,0,0,0,1.1,1.53l24.18,13.29Z"/><path d="M94.23,297.07a61,61,0,1,1,61-61A61.05,61.05,0,0,1,94.23,297.07Zm0-114.26a53.28,53.28,0,1,0,53.27,53.28A53.34,53.34,0,0,0,94.23,182.81Z"/><path d="M132.28,280.56,107.66,267a10.9,10.9,0,0,1-4.55-6.73c-1.27-7.71,2.78-13.57,6-18.28,1.59-2.3,3.39-4.9,3.27-6.25l-.5-.82a12.59,12.59,0,0,1-1.18-2.33c-.89-2.54-.79-5.69-.7-8.73a22.61,22.61,0,0,0-.22-5.72c-3.2-10.06-15.08-10.22-15.59-10.22s-12.39.16-15.59,10.22a22.61,22.61,0,0,0-.22,5.72c.09,3.05.19,6.19-.7,8.72a11.82,11.82,0,0,1-1.19,2.34,10.12,10.12,0,0,0-.52,1c-.09,1.22,1.71,3.82,3.3,6.12,3.26,4.71,7.31,10.57,6,18.28a10.92,10.92,0,0,1-4.16,6.49l-25,13.81-3.72-6.74,24.62-13.56a5.19,5.19,0,0,0,.67-1.26c.76-4.63-2-8.7-4.77-12.64-2.56-3.69-5-7.18-4.62-11.3a9.49,9.49,0,0,1,1.58-4.13,6.65,6.65,0,0,0,.51-.93c.42-1.16.34-3.79.27-5.9-.09-2.89-.19-5.88.58-8.3,4.92-15.51,22.38-15.63,23-15.59.51-.19,18,.08,22.91,15.59.77,2.42.67,5.4.58,8.29-.06,2.11-.15,4.75.26,5.92a8.88,8.88,0,0,0,.51.91,9.3,9.3,0,0,1,1.58,4.14c.36,4.12-2,7.61-4.61,11.3-2.72,3.94-5.54,8-4.77,12.65a3.26,3.26,0,0,0,1.11,1.52L136,273.82Z"/><path d="M181,362C81.2,362,0,280.8,0,181S81.2,0,181,0,362,81.2,362,181,280.8,362,181,362ZM181,7.7C85.44,7.7,7.7,85.44,7.7,181S85.44,354.3,181,354.3,354.3,276.55,354.3,181,276.55,7.7,181,7.7Z"/><polygon points="181 168.79 183.88 182.73 196.58 176.29 187.47 187.23 200.42 193.15 186.19 192.85 189.64 206.66 181 195.35 172.36 206.66 175.81 192.85 161.58 193.15 174.53 187.23 165.42 176.29 178.12 182.73 181 168.79"/><path d="M189.64,210.51a3.84,3.84,0,0,1-3.06-1.51L181,201.69,175.42,209a3.85,3.85,0,0,1-6.8-3.27l2.23-8.92-9.2.19a3.91,3.91,0,0,1-3.83-3,3.85,3.85,0,0,1,2.16-4.36l8.36-3.81-5.88-7.08a3.85,3.85,0,0,1,4.7-5.89l8.21,4.16,1.86-9a3.85,3.85,0,0,1,7.54,0l1.86,9,8.21-4.16a3.85,3.85,0,0,1,4.7,5.89l-5.88,7.08,8.36,3.81a3.84,3.84,0,0,1,2.16,4.36,3.63,3.63,0,0,1-3.83,3l-9.2-.19,2.23,8.92a3.84,3.84,0,0,1-2.07,4.4A3.78,3.78,0,0,1,189.64,210.51Zm-8.64-19a4,4,0,0,1,1.49.3,3.89,3.89,0,0,1,1.85-2.32,4.06,4.06,0,0,1-.62-1.39,3.85,3.85,0,0,1,0-1.51,4,4,0,0,1-1.47-.38,3.78,3.78,0,0,1-1.21-.91,3.78,3.78,0,0,1-1.21.91,4,4,0,0,1-1.47.38,3.85,3.85,0,0,1,0,1.51,4.06,4.06,0,0,1-.62,1.39,3.89,3.89,0,0,1,1.85,2.32A4,4,0,0,1,181,191.5Z"/><path d="M267.61,297.07a61,61,0,1,1,61-61A61.05,61.05,0,0,1,267.61,297.07Zm0-114.26a53.28,53.28,0,1,0,53.27,53.28A53.33,53.33,0,0,0,267.61,182.81Z"/><path d="M305.66,280.56,281,267a10.86,10.86,0,0,1-4.55-6.74c-1.27-7.7,2.78-13.56,6-18.27,1.58-2.3,3.39-4.9,3.27-6.25l-.51-.82a14.42,14.42,0,0,1-1.17-2.32c-.89-2.55-.8-5.69-.7-8.74a23.09,23.09,0,0,0-.22-5.72C280,208,267.85,207.91,267.63,207.91h0c-.53,0-12.41.16-15.61,10.22a23,23,0,0,0-.23,5.72c.1,3.05.2,6.19-.69,8.72a11.82,11.82,0,0,1-1.19,2.34,10.12,10.12,0,0,0-.52,1c-.09,1.22,1.71,3.82,3.3,6.13,3.26,4.7,7.31,10.56,6,18.27a10.87,10.87,0,0,1-4.17,6.49l-25,13.81-3.72-6.74,24.61-13.56a4.79,4.79,0,0,0,.68-1.26c.76-4.63-2-8.7-4.77-12.64-2.56-3.69-5-7.18-4.62-11.31a9.38,9.38,0,0,1,1.58-4.12,5.94,5.94,0,0,0,.52-.93c.41-1.16.33-3.79.26-5.9-.09-2.89-.19-5.88.58-8.3,4.88-15.34,21.86-15.59,22.92-15.59h.06c1,0,18,.25,22.88,15.59.76,2.42.67,5.41.58,8.3-.07,2.11-.15,4.74.26,5.91a5.51,5.51,0,0,0,.5.91,9.25,9.25,0,0,1,1.59,4.14c.36,4.11-2.05,7.61-4.61,11.3-2.72,3.94-5.54,8-4.77,12.65a3.42,3.42,0,0,0,1.06,1.49l24.23,13.32Z"/><path d="M130.29,178.55a3.85,3.85,0,0,1-3.32-5.8l14.65-24.93a3.85,3.85,0,1,1,6.64,3.91l-14.65,24.92A3.84,3.84,0,0,1,130.29,178.55Z"/><path d="M231.71,178.55a3.85,3.85,0,0,1-3.32-1.9l-14.64-24.92a3.85,3.85,0,1,1,6.63-3.91L235,172.75a3.85,3.85,0,0,1-3.32,5.8Z"/><path d="M195.37,239.94H166.46a3.85,3.85,0,0,1,0-7.7h28.91a3.85,3.85,0,1,1,0,7.7Z"/></g></g></svg>