<svg xmlns="http://www.w3.org/2000/svg" viewBox="0 0 300 300"><defs><style>.cls-1{fill:#231f20;}</style></defs><title>Asset 1</title><g id="Layer_2" data-name="Layer 2"><g id="Layer_1-2" data-name="Layer 1"><path class="cls-1" d="M219.5,180.53H80.5V84.45h139ZM86.67,174.36H213.33V90.62H86.67Z"/><path class="cls-1" d="M190.37,215.55H109.63L150,175Zm-65.9-6.17h51.06L150,183.7Z"/><path class="cls-1" d="M150,300C67.29,300,0,232.71,0,150S67.29,0,150,0,300,67.29,300,150,232.71,300,150,300ZM150,6.38C70.81,6.38,6.38,70.81,6.38,150S70.81,293.62,150,293.62,293.62,229.19,293.62,150,229.19,6.38,150,6.38Z"/></g></g></svg>