<?xml version="1.0" encoding="utf-8"?>
<!-- Generator: Adobe Illustrator 19.2.1, SVG Export Plug-In . SVG Version: 6.00 Build 0)  -->
<svg version="1.1" id="Layer_1" xmlns="http://www.w3.org/2000/svg" xmlns:xlink="http://www.w3.org/1999/xlink" x="0px" y="0px"
	 viewBox="0 0 50 50" enable-background="new 0 0 50 50" xml:space="preserve">
<path fill="#64C086" d="M23.5,4.7c10.4,0,18.4,5.1,21.6,13.2c3.5,8.7,2.1,16.8-4.3,23.7c-1.3,1.4-1.6,2.2,0,3.4
	c1.2,0.9,1.5,2,0.3,3.2c-1.2,1.2-2.3,1-3.2-0.2c-1.5-2-3-2-5.3-1.1c-5.2,2.1-10.7,2-15.9-0.4c-1.6-0.7-2.6-0.5-3.6,0.8
	c-0.2,0.3-0.6,0.6-0.9,0.9c-1,1-2,1.1-3.1,0c-1-1.1-0.9-2.2,0.2-3c1.9-1.4,1.5-2.2,0-3.8c-6.4-7-7.8-15.1-4-23.7
	C9.1,9.2,16,5.1,23.5,4.7z"/>
<path fill="#64C086" d="M29.7,3.7c2.7-1.9,5.2-2.3,7.8-1.8c1,0.2,1.8,0.4,2.6-0.7c0.7-1,1.7-0.8,2.7-0.2c0.8,0.6,1.3,1.5,0.7,2.4
	c-0.7,1.1-0.4,1.7,0.3,2.6c1.7,2.3,2.1,4.8,1.5,8.3C41.1,8.9,36.4,5.2,29.7,3.7z"/>
<path fill="#64C086" d="M20.9,3.7c-6.7,1.5-11.6,5-15.4,10.5C4.8,10.9,5.3,8.3,7,6c0.6-0.8,1-1.4,0.3-2.4C6.5,2.6,7.1,1.7,8,1
	c1-0.7,2-0.7,2.6,0.3C11.3,2.3,12,2.2,13,2C15.6,1.4,18.1,1.8,20.9,3.7z"/>
<path fill="#FFFFFF" d="M42.8,26.7c-0.1,9.7-8,17.6-17.6,17.6c-9.7,0-17.6-8.1-17.6-17.9c0.1-9.7,8-17.6,17.6-17.5
	C34.9,8.8,42.8,16.8,42.8,26.7z"/>
<path fill="#64C086" d="M29.9,28.8c-2,0-4,0-6,0c-1.1,0-1.5-0.4-1.5-1.5c0-4.1,0-8.2,0-12.3c0-1.3,0.7-2.1,1.9-2.1
	c1.4,0,2.1,0.8,2.1,2.2c0,2.6,0.1,5.2,0,7.7c-0.1,1.5,0.5,1.9,1.9,1.8c2.5-0.1,5,0,7.5,0c1.3,0,2.3,0.4,2.3,2c0,1.5-0.9,2.1-2.2,2.1
	C33.9,28.8,31.9,28.8,29.9,28.8C29.9,28.8,29.9,28.8,29.9,28.8z"/>
</svg>
