<?xml version="1.0" encoding="utf-8"?>
<!-- Generator: Adobe Illustrator 19.2.1, SVG Export Plug-In . SVG Version: 6.00 Build 0)  -->
<svg version="1.1" id="Layer_1" xmlns="http://www.w3.org/2000/svg" xmlns:xlink="http://www.w3.org/1999/xlink" x="0px" y="0px"
	 viewBox="0 0 50 50" enable-background="new 0 0 50 50" xml:space="preserve">
<g>
	<path fill="#EB3754" d="M25,49c-5-4.9-10.2-10.1-15.5-15.2c-4-3.9-7.5-8-8.3-13.8C0.3,13.6,3,7.8,8.4,5.1
		c5.2-2.6,11.1-1.5,15.7,3.1C24.4,8.5,24.7,8.7,25,9c2.5-2.7,5.4-4.7,9.3-5.1c9.7-1,17.2,8.1,13.9,18.4c-0.9,2.8-2.7,5.3-4.5,7.7
		c-1.6,2.1-3.7,3.7-5.6,5.6C33.6,40.2,29.2,44.8,25,49z"/>
</g>
</svg>
