<?xml version="1.0" encoding="utf-8"?>
<!-- Generator: Adobe Illustrator 19.2.1, SVG Export Plug-In . SVG Version: 6.00 Build 0)  -->
<svg version="1.1" id="Layer_1" xmlns="http://www.w3.org/2000/svg" xmlns:xlink="http://www.w3.org/1999/xlink" x="0px" y="0px"
	 viewBox="0 0 50 50" enable-background="new 0 0 50 50" xml:space="preserve">
<g>
	<path fill="#F4BD45" d="M25.6,39.5c-1.2,0-2.5,0.1-3.7,0c-1.2-0.1-2-0.7-0.9-1.9c0.8-0.8,0.2-1.5,0-2.2c-0.8-2.4-2.6-4-4.1-6
		c-4-5.4-2.7-12.6,3-16.1c4.5-2.8,10.4-2.1,14.1,1.8c3.7,3.9,4.1,9.6,0.9,14.1c-1.3,1.8-3,3.3-3.9,5.4c-0.4,1-1.2,2-0.1,3.2
		c0.8,1-0.1,1.5-1.1,1.6C28.4,39.5,27,39.5,25.6,39.5z"/>
	<path fill="#F4BD45" d="M42.9,23.4c-0.7,0-1.4,0-2.1,0c-0.6,0-1-0.4-1-1c0-0.6,0.4-1,0.9-1c1.4-0.1,2.9-0.1,4.3,0
		c0.6,0,1.1,0.4,1.1,1.1c0,0.7-0.6,1-1.2,1C44.2,23.4,43.6,23.4,42.9,23.4C42.9,23.4,42.9,23.4,42.9,23.4z"/>
	<path fill="#F4BD45" d="M12.2,7.7c0.7,0,4.1,3.4,4,4.1c0,0.4-0.2,0.8-0.6,0.9c-0.5,0.2-0.9,0.1-1.3-0.2c-1-1-2-1.9-2.9-2.9
		c-0.3-0.3-0.5-0.8-0.2-1.2C11.5,7.9,11.8,7.7,12.2,7.7z"/>
	<path fill="#F4BD45" d="M36.4,31.9c0.7,0,4.1,3.3,4.1,4c-0.1,1-0.9,1.4-1.7,0.8c-1.2-0.9-2.2-2-3.2-3.1
		C35,32.9,35.6,31.9,36.4,31.9z"/>
	<path fill="#F4BD45" d="M15.3,31.9c0.4,0,0.7,0.2,0.9,0.6c0.2,0.5,0.1,0.9-0.2,1.2c-1,1-1.9,1.9-2.9,2.9c-0.4,0.3-0.8,0.4-1.3,0.2
		c-0.4-0.2-0.6-0.5-0.6-0.9C11.2,35.3,14.6,31.9,15.3,31.9z"/>
	<path fill="#FBF9F4" d="M23.7,14.7c-0.2,0.5-0.6,0.8-1,1c-1.9,1-3.2,2.5-3.9,4.5c-0.2,0.6-0.4,1.3-1.2,1c-0.9-0.3-0.5-1.1-0.3-1.7
		c0.9-2.4,2.5-4.1,4.7-5.3C22.8,13.8,23.4,13.7,23.7,14.7z"/>
	<path fill="#F4BD45" d="M39.1,11.7c-0.5,0.5-1.1,1-1.7,1.4c-0.5,0.3-1,0.3-1.4-0.1c-0.4-0.5-0.4-1,0.1-1.4c1-1,2.1-1.9,3.3-2.8
		c0.5-0.4,1.1-0.4,1.5,0.2c0.4,0.6,0.2,1.1-0.3,1.5C40.1,10.9,39.6,11.3,39.1,11.7C39.1,11.8,39.1,11.8,39.1,11.7z"/>
	<path fill="#F4BD45" d="M26.6,5.3c0,0.7,0.1,1.4,0,2.1c0,0.6-0.4,1-1,1c-0.6,0-1-0.4-1.1-0.9c-0.1-1.4-0.1-2.9-0.1-4.3
		c0-0.6,0.4-1.1,1.1-1.1c0.7,0,1,0.5,1,1.2C26.7,4,26.6,4.6,26.6,5.3C26.6,5.3,26.6,5.3,26.6,5.3z"/>
	<path fill="#F4BD45" d="M8.8,23.4c-0.7,0-1.4,0-2.1,0c-0.6,0-1-0.4-1-1c0-0.6,0.4-1,0.9-1c1.4-0.1,2.9-0.1,4.3,0
		c0.6,0,1.1,0.4,1.1,1.1c0,0.7-0.6,1-1.2,1C10.1,23.4,9.5,23.4,8.8,23.4C8.8,23.4,8.8,23.4,8.8,23.4z"/>
</g>
<path fill="#F4BD45" d="M30.2,42.9h-8.8c-0.6,0-1-0.5-1-1v-0.1c0-0.6,0.5-1,1-1h8.8c0.6,0,1,0.5,1,1v0.1
	C31.3,42.4,30.8,42.9,30.2,42.9z"/>
<path fill="#F4BD45" d="M29.7,46.2c0,1.4-1.7,2.5-3.8,2.5s-3.8-1.1-3.8-2.5"/>
<path fill="#F4BD45" d="M30.2,46.2h-8.8c-0.6,0-1-0.5-1-1v-0.1c0-0.6,0.5-1,1-1h8.8c0.6,0,1,0.5,1,1v0.1
	C31.3,45.8,30.8,46.2,30.2,46.2z"/>
</svg>
