<svg xmlns="http://www.w3.org/2000/svg" viewBox="0 0 314.52 314.65"><defs><style>.cls-1{fill:#fdd641;}.cls-2{fill:#ee374f;}.cls-3{fill:#2dc2ee;}.cls-4{fill:#63bf83;}</style></defs><title>Asset 1</title><g id="Layer_2" data-name="Layer 2"><g id="Layer_1-2" data-name="Layer 1"><path class="cls-1" d="M303.52,149.62h0l-76.62-.32a11,11,0,0,1-10.95-11V83a11,11,0,0,1,22,0v44.39l52.74.23a139.6,139.6,0,0,0-35.32-66.26C231.9,37,204,27.58,188.46,24v99a11,11,0,1,1-22,0V11A11,11,0,0,1,178.31,0c2.14.17,52.82,4.52,92.84,46S314.38,136,314.5,138a11,11,0,0,1-11,11.63Z"/><path class="cls-2" d="M177.46,314.65a11,11,0,0,1-11-11v-112a11,11,0,0,1,22,0v99c15.55-3.62,43.59-13.14,66.86-37.26a138.72,138.72,0,0,0,35.37-66.25l-52.79.23V231.7a11,11,0,0,1-22,0V176.35a11,11,0,0,1,10.95-11l76.62-.33h0a11,11,0,0,1,11,11.64c-.12,2-3.36,50.48-43.35,92s-90.7,45.84-92.84,46C178,314.64,177.75,314.65,177.46,314.65Z"/><path class="cls-3" d="M11,149.62A11,11,0,0,1,0,138c.12-2,3.35-50.48,43.35-92S134.07.2,136.21,0a11,11,0,0,1,11.84,11V123a11,11,0,1,1-22,0v-99C110.51,27.68,82.47,37.2,59.2,61.31a138.69,138.69,0,0,0-35.37,66.26l52.79-.23V83a11,11,0,1,1,22,0V138.3a11,11,0,0,1-11,11l-76.61.32Z"/><path class="cls-4" d="M137.05,314.65l-.84,0c-2.14-.17-52.82-4.52-92.84-46S.14,178.7,0,176.66A11,11,0,0,1,11,165h.05l76.61.33a11,11,0,0,1,11,11V231.7a11,11,0,0,1-22,0V187.31l-52.75-.23A139.57,139.57,0,0,0,59.2,253.33c23.42,24.28,51.35,33.73,66.85,37.3v-99a11,11,0,1,1,22,0v112a11,11,0,0,1-11,11Z"/></g></g></svg>